<svg id="logosandtypes_com" xmlns="http://www.w3.org/2000/svg" viewBox="0 0 150 150.2" enable-background="new 0 0 150 150.2"><path d="M0 .2h150v150H0V.2z" fill="none"/><g><defs><filter id="a" filterUnits="userSpaceOnUse" x="31.9" y="17.1" width="91.8" height="113.1"><feColorMatrix values="1 0 0 0 0 0 1 0 0 0 0 0 1 0 0 0 0 0 1 0"/></filter></defs><mask maskUnits="userSpaceOnUse" x="31.9" y="17.1" width="91.8" height="113.1" id="b"><g filter="url(#a)"><path d="M123.7 17.1H31.9v113.1h91.8V17.1z" fill-rule="evenodd" clip-rule="evenodd" fill="#fff"/></g></mask><path d="M106 92.9c-1.9-3.8-3.8-6.2-5.4-7.7 10.8-6.3 18.1-18.1 18.1-31.6 0-20.2-15.9-36.6-37.9-36.6H31.9v113.1H60c0-18.1 23.6-31 20.4-51.6.5 17.3-15.6 28.2-20.4 38.5V43.4c0-6.7 4.1-11 10.9-11 5.4 0 6.8 3.1 5.6 6.1 1.2-.5 2-2.9 1.3-4.3 8.3 0 7.4 7.1 6.8 9.1-3.7-.9-10-.3-10 4.4s3.6 10.4 3.6 10.4-7.6-1.6-13.2 2.3c11.5-4.1 26.3 3.1 26.3 18.1 0 9.1-4 17.1-11.2 27.2l8.9 18.8c1.2 2.6 3.4 5.6 8.3 5.6h26.5L106 92.9z" mask="url(#b)" fill-rule="evenodd" clip-rule="evenodd" fill="#2027a7"/><path d="M72.2 38.5c1.1-.2 1.8-1.2 1.6-2.1-.2-.9-1.2-1.4-2.3-1.2-1.1.2-1.8 1.2-1.6 2.1.2.9 1.2 1.5 2.3 1.2" fill-rule="evenodd" clip-rule="evenodd" fill="#2027a7"/></g></svg>